<?xml version="1.0" encoding="utf-8"?>
<!-- Svg Vector Icons : http://www.onlinewebfonts.com/icon -->
<!DOCTYPE svg PUBLIC "-//W3C//DTD SVG 1.1//EN" "http://www.w3.org/Graphics/SVG/1.1/DTD/svg11.dtd">
<svg version="1.1" xmlns="http://www.w3.org/2000/svg" xmlns:xlink="http://www.w3.org/1999/xlink" x="0px" y="0px" viewBox="0 0 1000 1000" enable-background="new 0 0 1000 1000" xml:space="preserve">
<metadata> Svg Vector Icons : http://www.onlinewebfonts.com/icon </metadata>
<g><g transform="translate(0.000000,511.000000) scale(0.100000,-0.100000)"><path d="M5705.7,4079.5c-127.6-517.3-232.4-952.5-232.4-966.2c0-13.7,202.8-77.5,455.7-141.3l455.8-113.9l20.5,84.3c129.9,489.9,458,1834.4,448.9,1841.2c-9.1,9.1-870.5,232.4-902.4,234.7C5944.9,5018.4,5835.5,4594.5,5705.7,4079.5z"/><path d="M2533.7,4430.5v-474l150.4-25.1c414.7-70.6,765.7-435.2,799.8-829.5l13.7-134.4h478.5h478.5l-13.7,177.7c-20.5,241.5-68.4,412.5-184.6,654c-180,373.7-430.7,644.9-779.3,843.1c-259.8,148.1-638,262.1-879.6,262.1h-63.8V4430.5z"/><path d="M8014,3787.9l-478.5-478.5l337.3-335l335-337.3l478.5,478.5l478.5,478.5l-337.2,337.2l-335,335L8014,3787.9z"/><path d="M3297,2343.1c-264.3-84.3-471.7-264.3-587.9-510.4c-70.6-148.1-72.9-159.5-70.6-460.3c0-271.2,9.1-330.4,63.8-501.3c186.9-572,578.8-1171.3,1153-1761.5c610.7-631.2,1255.6-1071,1882.2-1285.2c234.7-79.8,264.3-84.3,544.6-86.6c287.1,0,300.8,2.3,448.9,72.9c200.5,93.4,364.6,257.5,458,458c59.3,127.6,72.9,186.9,79.8,364.6c16,335-52.4,615.3-250.7,1023.2C6450.8,832.3,5063,2056,3989.8,2327.2C3773.3,2381.9,3442.9,2388.7,3297,2343.1z"/><path d="M8754.6,1739.3c-483.1-123-904.7-227.9-936.6-237l-61.5-16l113.9-455.7c84.3-335,123-455.7,148.1-455.7c50.1,0,1861.7,458,1880,474c9.1,9.1-25.1,180-75.2,380.6c-134.5,537.8-134.5,535.5-164.1,533.2C9643.3,1962.6,9237.7,1860,8754.6,1739.3z"/><path d="M2096.1,362.9c-72.9-166.4-546.9-1253.3-1055-2420C532.9-3221.5,111.4-4217.3,104.5-4267.5c-43.3-296.2,230.2-569.7,526.4-526.4c50.1,6.8,439.8,164.1,865.9,350.9c426.1,186.9,1515.4,660.8,2420,1055c906.9,394.2,1647.5,722.4,1647.5,729.2c0,6.8-43.3,25.1-95.7,41c-170.9,50.1-644.9,293.9-902.4,467.1c-364.6,243.8-660.8,487.6-995.8,822.6c-590.2,592.5-1030,1221.4-1255.6,1800.2c-34.2,88.9-68.4,166.3-75.2,175.5C2232.9,654.6,2166.8,527,2096.1,362.9z"/><path d="M7865.9-922.3v-478.5l134.5-13.7c284.8-25.1,610.7-255.2,742.9-524.1c31.9-68.4,72.9-193.7,86.6-275.7l25.1-150.4h476.2h478.5l-16,161.8C9702.5-1280,8948.3-530.3,8043.6-457.4l-177.7,13.7V-922.3z"/></g></g>
</svg>