<?xml version="1.0" encoding="utf-8"?>
<!-- Svg Vector Icons : http://www.onlinewebfonts.com/icon -->
<!DOCTYPE svg PUBLIC "-//W3C//DTD SVG 1.1//EN" "http://www.w3.org/Graphics/SVG/1.1/DTD/svg11.dtd">
<svg version="1.1" xmlns="http://www.w3.org/2000/svg" xmlns:xlink="http://www.w3.org/1999/xlink" x="0px" y="0px" viewBox="0 0 1000 1000" enable-background="new 0 0 1000 1000" xml:space="preserve">
<metadata> Svg Vector Icons : http://www.onlinewebfonts.com/icon </metadata>
<g><path d="M632.4,764.5c0,73.1-59.2,132.3-132.3,132.3c-73,0-132.3-59.2-132.3-132.3c0-73.1,59.2-132.3,132.3-132.3C573.2,632.3,632.4,691.4,632.4,764.5z M195.8,510l101.4,85c101.1-120.7,305.1-120.7,406.1,0.2l101.5-84.7c-75.8-90.7-186.8-142.6-304.6-142.6C382.4,367.7,271.4,419.6,195.8,510z M10,320.5l98.1,88.9c100.1-110.5,243-173.8,392.1-173.8c149,0,291.8,63.3,391.9,173.6l97.9-88.9c-125.2-138-303.6-217-489.8-217C313.8,103.2,135.2,182.6,10,320.5z"/></g>
</svg>