<?xml version="1.0" encoding="utf-8"?>
<!-- Svg Vector Icons : http://www.onlinewebfonts.com/icon -->
<!DOCTYPE svg PUBLIC "-//W3C//DTD SVG 1.1//EN" "http://www.w3.org/Graphics/SVG/1.1/DTD/svg11.dtd">
<svg version="1.1" xmlns="http://www.w3.org/2000/svg" xmlns:xlink="http://www.w3.org/1999/xlink" x="0px" y="0px" viewBox="0 0 1000 1000" enable-background="new 0 0 1000 1000" xml:space="preserve">
<metadata> Svg Vector Icons : http://www.onlinewebfonts.com/icon </metadata>
<g><g><g><path d="M118.8,304.1c55.3-84.4,141.5-146.6,242.4-171c7.8-1.9,14.2-7.4,17.2-14.8c3-7.4,2.3-15.8-2-22.6C344.1,44.3,286.9,10,221.7,10C120.8,10,39,91.8,39,192.7c0,42.8,14.8,82.1,39.5,113.3c4.9,6.3,12.6,9.7,20.6,9.4C107.1,314.9,114.4,310.8,118.8,304.1z"/><path d="M778.3,10c-65,0-121.9,34-154.2,85.1c-4.3,6.8-5,15.2-2,22.7c3,7.5,9.5,13,17.3,14.8c101.2,23.8,187.7,85.6,243.4,169.7c4.4,6.7,11.8,10.8,19.8,11.1c8,0.3,15.7-3.3,20.6-9.7c23.6-30.7,37.8-69.2,37.8-111C960.9,91.8,879.2,10,778.3,10z"/><path d="M903.9,569.5c0-70.5-18.4-136.8-50.3-194.5c-59.3-106.8-165.8-183.6-291.1-202.8c-20-3.1-40.3-5.1-61.1-5.1c-21.8,0-43,2.2-63.8,5.6c-124.8,20-230.7,97.1-289.4,204.1c-31.4,57.3-49.3,123-49.3,192.8c0,119.6,52.7,226.9,135.8,300.6l-33.9,47.8c-14.6,20.6-9.8,49,10.8,63.7c8,5.7,17.3,8.4,26.4,8.4c14.3,0,28.4-6.7,37.3-19.2l33.9-47.7c57.1,31.2,122.6,49,192.2,49c69.6,0,135.1-17.8,192.2-49l33.9,47.7c8.9,12.5,23,19.2,37.3,19.2c9.1,0,18.3-2.8,26.4-8.4c20.6-14.6,25.4-43.1,10.9-63.7l-33.9-47.8C851.1,796.4,903.9,689.1,903.9,569.5z M501.4,859.4c-159.9,0-289.9-130-289.9-289.9c0-49.8,12.6-96.8,34.9-137.8c42.3-78,119.5-134.2,210.4-148.4c14.6-2.3,29.4-3.8,44.7-3.8c14.3,0,28.4,1.4,42.2,3.4c91.7,13.4,169.7,69.6,212.5,148c22.5,41.2,35.3,88.3,35.3,138.5C791.3,729.4,661.3,859.4,501.4,859.4z"/><path d="M663.8,637.3L553.2,569c-2.3-12.9-9.3-24.1-19.1-32l5.1-138.8c0.6-17.7-13.2-32.6-30.9-33.3c-17.7-0.8-32.6,13.2-33.3,30.9l-5.1,138.9c-13.7,9.7-22.8,25.6-22.8,43.7c0,29.6,24,53.5,53.5,53.5c8.4,0,16.3-2.1,23.3-5.6L630.1,692c5.3,3.2,11.1,4.8,16.9,4.8c10.8,0,21.3-5.4,27.4-15.2C683.7,666.4,678.9,646.7,663.8,637.3z"/></g></g><g></g><g></g><g></g><g></g><g></g><g></g><g></g><g></g><g></g><g></g><g></g><g></g><g></g><g></g><g></g></g>
</svg>