<?xml version="1.0" encoding="utf-8"?>
<!-- Svg Vector Icons : http://www.onlinewebfonts.com/icon -->
<!DOCTYPE svg PUBLIC "-//W3C//DTD SVG 1.1//EN" "http://www.w3.org/Graphics/SVG/1.1/DTD/svg11.dtd">
<svg version="1.1" xmlns="http://www.w3.org/2000/svg" xmlns:xlink="http://www.w3.org/1999/xlink" x="0px" y="0px" viewBox="0 0 1000 1000" enable-background="new 0 0 1000 1000" xml:space="preserve">
<metadata> Svg Vector Icons : http://www.onlinewebfonts.com/icon </metadata>
<g><g transform="translate(0.000000,512.000000) scale(0.100000,-0.100000)"><path d="M4713,5001.9c-695-90-1323-547.6-1638.9-1194.7c-158.9-327.4-216.4-603.1-218.3-1033.9c-1.9-942-337-2081.2-875-2971.5c-252.7-417.4-488.2-727.6-850.1-1108.6c-373.4-396.3-396.3-444.2-413.6-840.5c-9.6-201-3.8-271.9,21.1-360c44-149.3,164.7-294.9,308.3-367.6l113-57.4h3838.9h3840.8l90,42.1c114.9,53.6,243.2,180,302.5,302.5c40.2,84.2,47.9,126.4,53.6,367.6c5.7,206.8,0,294.9-23,375.3c-36.4,122.5-204.8,356.1-455.7,628c-497.8,538-873.1,1104.7-1152.6,1742.3c-325.5,735.2-509.3,1550.9-509.3,2247.8c0,438.4-70.9,752.5-243.2,1087.5C6487.9,4661.1,5611,5118.7,4713,5001.9z"/><path d="M3774.8-3615.9c1.9-126.4,59.4-335.1,135.9-492.1c199.1-402.1,635.7-672,1089.4-672c451.9,0,892.2,270,1089.5,670.1c76.6,158.9,134,367.6,135.9,494v61.3H5000.2H3774.8V-3615.9z"/></g></g>
</svg>